<svg width="26" height="18" viewBox="0 0 26 18" fill="none" xmlns="http://www.w3.org/2000/svg">
<path d="M6.15126 13V4.3016H7.1746V8.17751H11.3191V4.3016H12.3425V13H11.3191V9.1241H7.1746V13H6.15126ZM14.6458 13V4.3016H17.7542C18.9822 4.3016 19.9032 4.70667 20.5172 5.51682C21.1312 6.32696 21.4382 7.37162 21.4382 8.6508C21.4382 9.92998 21.1312 10.9746 20.5172 11.7848C19.9032 12.5949 18.9822 13 17.7542 13H14.6458ZM17.7542 5.22261H15.6691V12.079H17.7542C18.6411 12.079 19.3063 11.7635 19.7497 11.1324C20.1931 10.4928 20.4149 9.66561 20.4149 8.6508C20.4149 7.63599 20.1931 6.81305 19.7497 6.18199C19.3063 5.5424 18.6411 5.22261 17.7542 5.22261Z" fill="white"/>
<rect x="0.5" y="0.5" width="25" height="17" stroke="white"/>
</svg>
