<svg width="48" height="22" viewBox="0 0 48 22" fill="none" xmlns="http://www.w3.org/2000/svg">
<rect x="0.5" y="0.5" width="47" height="21" fill="white" stroke="white"/>
<path d="M7.14326 16L7.50053 6.28226H8.82958L11.8164 13.1275L14.8174 6.28226H16.1465L16.5037 16H15.3605L15.0747 8.3973L12.4166 14.4852H11.2304L8.55805 8.3973L8.28653 16H7.14326ZM19.1537 15.1568C18.6297 14.4518 18.3677 13.542 18.3677 12.4273C18.3677 11.3126 18.6297 10.4075 19.1537 9.71205C19.6777 9.00704 20.4589 8.65453 21.4974 8.65453C22.5454 8.65453 23.3361 9.00704 23.8696 9.71205C24.4032 10.4075 24.6699 11.3126 24.6699 12.4273C24.6699 13.542 24.4032 14.4518 23.8696 15.1568C23.3361 15.8523 22.5454 16.2001 21.4974 16.2001C20.4589 16.2001 19.6777 15.8523 19.1537 15.1568ZM19.9682 10.4123C19.6253 10.9268 19.4538 11.5984 19.4538 12.4273C19.4538 13.2562 19.6253 13.9326 19.9682 14.4566C20.3112 14.9711 20.8257 15.2283 21.5117 15.2283C22.1976 15.2283 22.7121 14.9711 23.0551 14.4566C23.4076 13.9326 23.5838 13.2562 23.5838 12.4273C23.5838 11.5984 23.4076 10.9268 23.0551 10.4123C22.7121 9.8883 22.1976 9.6263 21.5117 9.6263C20.8257 9.6263 20.3112 9.8883 19.9682 10.4123ZM26.628 8.8546L28.7716 14.7567L30.9009 8.8546H32.0585L29.4004 16H28.1142L25.4561 8.8546H26.628ZM33.4401 7.2969C33.3258 7.16352 33.2686 6.9968 33.2686 6.79673C33.2686 6.59666 33.3258 6.43469 33.4401 6.31084C33.5544 6.17746 33.7212 6.11077 33.9403 6.11077C34.1594 6.11077 34.3309 6.17746 34.4548 6.31084C34.5786 6.44422 34.6405 6.60618 34.6405 6.79673C34.6405 6.98727 34.5786 7.14923 34.4548 7.28261C34.3309 7.41599 34.1594 7.48269 33.9403 7.48269C33.7212 7.48269 33.5544 7.42076 33.4401 7.2969ZM33.4115 16V8.8546H34.4976V16H33.4115ZM39.3831 16.2001C38.5256 16.2001 37.8159 15.9 37.2537 15.2998C36.7012 14.6995 36.4249 13.8183 36.4249 12.656C36.4249 11.4936 36.7536 10.5362 37.4109 9.7835C38.0683 9.03085 38.921 8.65453 39.969 8.65453C40.6359 8.65453 41.1742 8.85937 41.5839 9.26903C41.9935 9.66918 42.1984 10.1741 42.1984 10.7839C42.1984 11.3841 41.884 11.9367 41.2552 12.4416C40.6359 12.9465 39.7308 13.199 38.5399 13.199C38.2255 13.199 37.8921 13.1847 37.5396 13.1561C37.6063 13.8326 37.8111 14.347 38.1541 14.6995C38.5066 15.052 38.9305 15.2283 39.4259 15.2283C40.2548 15.2283 40.9455 14.9711 41.4981 14.4566L42.0126 15.1568C41.2885 15.8523 40.412 16.2001 39.3831 16.2001ZM39.9261 9.6263C39.2688 9.6263 38.7209 9.85972 38.2827 10.3266C37.854 10.7934 37.6015 11.4127 37.5253 12.1844C37.8397 12.232 38.1874 12.2558 38.5685 12.2558C39.3878 12.2558 40.0166 12.1034 40.4549 11.7985C40.8931 11.4936 41.1123 11.1411 41.1123 10.741C41.1123 10.4456 41.0027 10.1884 40.7836 9.96928C40.574 9.74063 40.2882 9.6263 39.9261 9.6263Z" fill="black"/>
</svg>
