<svg xmlns="http://www.w3.org/2000/svg" xmlns:xlink="http://www.w3.org/1999/xlink" viewBox="0,0,256,256" width="24px" height="24px" fill-rule="nonzero"><g fill="#fb0002" fill-rule="nonzero" stroke="none" stroke-width="1" stroke-linecap="butt" stroke-linejoin="miter" stroke-miterlimit="10" stroke-dasharray="" stroke-dashoffset="0" font-family="none" font-weight="none" font-size="none" text-anchor="none" style="mix-blend-mode: normal"><g transform="scale(10.66667,10.66667)"><path d="M12,2c-5.51101,0 -10,4.489 -10,10c0,5.511 4.48899,10 10,10c5.51101,0 10,-4.489 10,-10c0,-5.511 -4.48899,-10 -10,-10zM12,4c4.43013,0 8,3.56988 8,8c0,4.43012 -3.56987,8 -8,8c-4.43013,0 -8,-3.56988 -8,-8c0,-4.43012 3.56987,-8 8,-8zM12.46875,4.98633c-0.51235,0.01682 -0.92903,0.41831 -0.96484,0.92969l-0.5,6c-0.03013,0.35155 0.12722,0.69297 0.41406,0.89844l3.5,2.5c0.44981,0.32145 1.07504,0.21739 1.39648,-0.23242c0.32145,-0.44981 0.21739,-1.07504 -0.23242,-1.39648l-3.03906,-2.16797l0.45313,-5.43359c0.02823,-0.28651 -0.06837,-0.57128 -0.2651,-0.78147c-0.19673,-0.21019 -0.4745,-0.32541 -0.76224,-0.31618z"></path></g></g></svg>